# xmcd
#
# Track frame offsets: 
#        150
#        21105
#        47987
#        69203
#        95761
#        116030
#        148925
#        169831
#        191405
#        231890
#        257369
#        289426
#
# Disc length: 4257 seconds
#
# Revision: 3
# Processed by: cddbd v1.5.2PL0 Copyright (c) Steve Scherf et al.
# Submitted via: ExactAudioCopy v1.0b1
#
DISCID=b1109f0c
DTITLE=Richard Bargel - Mojo and the Wolf
DYEAR=2005
DGENRE=Blues
TTITLE0=Mississippi Waters
TTITLE1=I will die for you
TTITLE2=You just look great
TTITLE3=You're the queen
TTITLE4=Batu! Batu! (In the mud hut)
TTITLE5=Love is a terrible thing
TTITLE6=I go blue
TTITLE7=House of Pain
TTITLE8=Dark Star
TTITLE9=Yes, it's me
TTITLE10=The wolf in the woods
TTITLE11=Mojo and the Wolf
EXTD=YEAR: 2005
EXTT0=
EXTT1=
EXTT2=
EXTT3=
EXTT4=
EXTT5=
EXTT6=
EXTT7=
EXTT8=
EXTT9=
EXTT10=
EXTT11=
PLAYORDER=
